<svg width="20" height="20" viewBox="0 0 20 20" fill="none" xmlns="http://www.w3.org/2000/svg">
<g clip-path="url(#clip0_61_521)">
<path d="M0.833252 17.5H4.16659V7.50001H0.833252V17.5ZM19.1666 8.33334C19.1666 7.41668 18.4166 6.66668 17.4999 6.66668H12.2416L13.0333 2.85834L13.0583 2.59168C13.0583 2.25001 12.9166 1.93334 12.6916 1.70834L11.8083 0.833344L6.32492 6.32501C6.01659 6.62501 5.83325 7.04168 5.83325 7.50001V15.8333C5.83325 16.75 6.58325 17.5 7.49992 17.5H14.9999C15.6916 17.5 16.2833 17.0833 16.5333 16.4833L19.0499 10.6083C19.1249 10.4167 19.1666 10.2167 19.1666 10V8.33334Z" fill="#FFDD2E"/>
</g>
<defs>
<clipPath id="clip0_61_521">
<rect width="20" height="20" fill="white"/>
</clipPath>
</defs>
</svg>
