<svg width="154" height="150" viewBox="0 0 154 150" fill="none" xmlns="http://www.w3.org/2000/svg">
<path d="M120 82.5V135H15V30H52.65C53.025 24.675 54.3 19.65 56.25 15H15C6.75 15 0 21.75 0 30V135C0 143.25 6.75 150 15 150H120C128.25 150 135 143.25 135 135V97.5L120 82.5ZM108.75 120H26.25L46.875 93.525L61.575 111.225L82.2 84.675L108.75 120ZM129.75 51.675C133.05 46.425 135 40.35 135 33.75C135 15.075 119.925 0 101.25 0C82.575 0 67.5 15.075 67.5 33.75C67.5 52.425 82.575 67.5 101.175 67.5C107.775 67.5 113.925 65.55 119.1 62.25L142.5 85.65L153.15 75L129.75 51.675ZM101.25 52.5C90.9 52.5 82.5 44.1 82.5 33.75C82.5 23.4 90.9 15 101.25 15C111.6 15 120 23.4 120 33.75C120 44.1 111.6 52.5 101.25 52.5Z" fill="black"/>
</svg>
