<svg width="28" height="28" viewBox="0 0 28 28" fill="none" xmlns="http://www.w3.org/2000/svg">
<path d="M24.4125 15.3708C24.4708 14.9333 24.5 14.4812 24.5 14C24.5 13.5333 24.4708 13.0667 24.3979 12.6292L27.3583 10.325C27.6208 10.1208 27.6938 9.72708 27.5333 9.43542L24.7333 4.59375C24.5583 4.27292 24.1938 4.17083 23.8729 4.27292L20.3875 5.67292C19.6583 5.11875 18.8854 4.65208 18.025 4.30208L17.5 0.597916C17.4417 0.247916 17.15 0 16.8 0H11.2C10.85 0 10.5729 0.247916 10.5146 0.597916L9.98958 4.30208C9.12916 4.65208 8.34166 5.13333 7.62708 5.67292L4.14166 4.27292C3.82083 4.15625 3.45625 4.27292 3.28125 4.59375L0.495831 9.43542C0.320831 9.74167 0.379164 10.1208 0.67083 10.325L3.63125 12.6292C3.55833 13.0667 3.5 13.5479 3.5 14C3.5 14.4521 3.52916 14.9333 3.60208 15.3708L0.641664 17.675C0.379164 17.8792 0.306247 18.2729 0.466664 18.5646L3.26666 23.4062C3.44166 23.7271 3.80625 23.8292 4.12708 23.7271L7.6125 22.3271C8.34166 22.8812 9.11458 23.3479 9.975 23.6979L10.5 27.4021C10.5729 27.7521 10.85 28 11.2 28H16.8C17.15 28 17.4417 27.7521 17.4854 27.4021L18.0104 23.6979C18.8708 23.3479 19.6583 22.8812 20.3729 22.3271L23.8583 23.7271C24.1792 23.8438 24.5437 23.7271 24.7188 23.4062L27.5187 18.5646C27.6938 18.2437 27.6208 17.8792 27.3437 17.675L24.4125 15.3708ZM14 19.25C11.1125 19.25 8.75 16.8875 8.75 14C8.75 11.1125 11.1125 8.75 14 8.75C16.8875 8.75 19.25 11.1125 19.25 14C19.25 16.8875 16.8875 19.25 14 19.25Z" fill="white"/>
</svg>
